<svg width="22" height="25" viewBox="0 0 22 25" fill="none" xmlns="http://www.w3.org/2000/svg">
<path d="M9.09256 10.4882C8.40793 10.4882 7.86856 11.1132 7.86856 11.8763C7.86856 12.6368 8.42056 13.2645 9.09256 13.2645C9.77593 13.2645 10.3153 12.6368 10.3153 11.8763C10.3292 11.1118 9.77593 10.4882 9.09256 10.4882ZM13.4732 10.4882C12.7886 10.4882 12.2492 11.1132 12.2492 11.8763C12.2492 12.6368 12.8012 13.2645 13.4732 13.2645C14.1566 13.2645 14.6959 12.6368 14.6959 11.8763C14.6947 11.1118 14.1566 10.4882 13.4732 10.4882Z" fill="white"/>
<path d="M19.3052 0H3.22395C2.90015 0.000862854 2.57969 0.0681518 2.28085 0.198025C1.98202 0.327898 1.71067 0.517811 1.48229 0.756923C1.25392 0.996034 1.073 1.27966 0.94985 1.59161C0.826705 1.90355 0.76375 2.23771 0.76458 2.575V19.475C0.76458 20.9 1.86858 22.05 3.22395 22.05H16.832L16.1941 19.7355L17.7313 21.2237L19.1827 22.6237L21.7646 25V2.575C21.7654 2.23771 21.7025 1.90355 21.5793 1.59161C21.4562 1.27966 21.2752 0.996034 21.0469 0.756923C20.8185 0.517811 20.5471 0.327898 20.2483 0.198025C19.9495 0.0681518 19.629 0.000862854 19.3052 0ZM14.672 16.325C14.672 16.325 14.2399 15.7882 13.8812 15.3105C15.4526 14.8474 16.0526 13.8237 16.0526 13.8237C15.5599 14.1605 15.0926 14.4 14.672 14.5632C13.1406 15.2308 11.4542 15.4129 9.82395 15.0868C9.22155 14.9636 8.63129 14.783 8.06058 14.5474C7.75959 14.4283 7.46707 14.2871 7.18521 14.125C7.14858 14.0974 7.11321 14.0868 7.07784 14.0618C7.05892 14.0525 7.04213 14.039 7.02858 14.0224C6.81258 13.8987 6.69258 13.8118 6.69258 13.8118C6.69258 13.8118 7.26858 14.8118 8.79321 15.2868C8.43321 15.7605 7.98858 16.325 7.98858 16.325C5.33721 16.2368 4.33048 14.425 4.33048 14.425C4.33048 10.4 6.05848 7.13816 6.05848 7.13816C7.78648 5.78684 9.42984 5.825 9.42984 5.825L9.54984 5.975C7.38984 6.62632 6.39321 7.61316 6.39321 7.61316C6.39321 7.61316 6.65848 7.46316 7.10184 7.25132C8.38521 6.66447 9.40458 6.50132 9.82521 6.46316C9.89721 6.45132 9.95784 6.43816 10.0298 6.43816C12.1105 6.14608 14.2263 6.55798 16.0652 7.61316C16.0652 7.61316 15.1166 6.67632 13.0766 6.02632L13.2446 5.82632C13.2446 5.82632 14.8892 5.78816 16.6159 7.13947C16.6159 7.13947 18.344 10.4013 18.344 14.4263C18.344 14.425 17.3246 16.2368 14.672 16.325Z" fill="white"/>
</svg>
