<svg width="34" height="35" viewBox="0 0 34 35" fill="none" xmlns="http://www.w3.org/2000/svg">
<g filter="url(#filter0_d_2_26)">
<path d="M17.2549 7.05008C15.5523 7.05008 13.9196 7.7264 12.7157 8.93027C11.5118 10.1341 10.8355 11.7669 10.8355 13.4694C10.8355 15.172 11.5118 16.8048 12.7157 18.0086C13.9196 19.2125 15.5523 19.8888 17.2549 19.8888C18.9574 19.8888 20.5902 19.2125 21.794 18.0086C22.9979 16.8048 23.6742 15.172 23.6742 13.4694C23.6742 11.7669 22.9979 10.1341 21.794 8.93027C20.5902 7.7264 18.9574 7.05008 17.2549 7.05008ZM17.2549 17.6384C16.1488 17.6384 15.0881 17.1991 14.306 16.417C13.5239 15.6349 13.0845 14.5741 13.0845 13.4681C13.0845 12.362 13.5239 11.3013 14.306 10.5192C15.0881 9.73707 16.1488 9.29769 17.2549 9.29769C18.3609 9.29769 19.4217 9.73707 20.2038 10.5192C20.9859 11.3013 21.4252 12.362 21.4252 13.4681C21.4252 14.5741 20.9859 15.6349 20.2038 16.417C19.4217 17.1991 18.3609 17.6384 17.2549 17.6384Z" fill="white"/>
<path d="M23.9283 8.31065C24.7548 8.31065 25.4248 7.64062 25.4248 6.81409C25.4248 5.98757 24.7548 5.31754 23.9283 5.31754C23.1018 5.31754 22.4317 5.98757 22.4317 6.81409C22.4317 7.64062 23.1018 8.31065 23.9283 8.31065Z" fill="white"/>
<path d="M29.1024 5.29253C28.781 4.4626 28.2899 3.70891 27.6604 3.07971C27.031 2.45051 26.2771 1.95967 25.4471 1.6386C24.4757 1.27398 23.4496 1.07682 22.4123 1.05553C21.0754 0.997219 20.652 0.98056 17.2618 0.98056C13.8717 0.98056 13.4371 0.98056 12.1113 1.05553C11.0748 1.07574 10.0494 1.27293 9.07934 1.6386C8.24906 1.95929 7.49499 2.45 6.86551 3.07925C6.23602 3.7085 5.74502 4.46238 5.42402 5.29253C5.05932 6.26379 4.86262 7.29003 4.84233 8.3273C4.78263 9.66281 4.76459 10.0862 4.76459 13.4778C4.76459 16.8679 4.76459 17.2997 4.84233 18.6283C4.86315 19.6667 5.0589 20.6912 5.42402 21.6644C5.74593 22.4943 6.2374 23.2479 6.86704 23.877C7.49667 24.5062 8.25063 24.9971 9.08072 25.3184C10.049 25.6976 11.0748 25.9089 12.1141 25.9431C13.451 26.0014 13.8744 26.0194 17.2646 26.0194C20.6547 26.0194 21.0893 26.0194 22.4151 25.9431C23.4523 25.922 24.4784 25.7253 25.4498 25.3614C26.2797 25.0396 27.0333 24.5483 27.6627 23.9189C28.2921 23.2896 28.7833 22.5359 29.1052 21.7061C29.4703 20.7343 29.666 19.7097 29.6868 18.6713C29.7465 17.3358 29.7646 16.9124 29.7646 13.5208C29.7646 10.1293 29.7646 9.69891 29.6868 8.37033C29.6707 7.3184 29.473 6.27716 29.1024 5.29253ZM27.4115 18.5255C27.4025 19.3256 27.2565 20.1182 26.9797 20.8689C26.7712 21.4088 26.4521 21.899 26.0427 22.3081C25.6334 22.7172 25.143 23.0361 24.603 23.2443C23.8606 23.5198 23.0764 23.6658 22.2846 23.676C20.9657 23.7371 20.5937 23.7524 17.2118 23.7524C13.8272 23.7524 13.4815 23.7524 12.1377 23.676C11.3463 23.6663 10.5625 23.5203 9.82067 23.2443C9.27881 23.0374 8.78641 22.7191 8.37533 22.3099C7.96425 21.9007 7.64363 21.4098 7.43423 20.8689C7.16136 20.1263 7.01541 19.343 7.00248 18.5519C6.94279 17.2331 6.9289 16.861 6.9289 13.4792C6.9289 10.096 6.9289 9.75027 7.00248 8.40504C7.01146 7.60542 7.15749 6.81327 7.43423 6.06302C7.85766 4.96768 8.72533 4.10556 9.82067 3.6863C10.5628 3.41162 11.3464 3.26561 12.1377 3.25455C13.4579 3.19485 13.8286 3.17819 17.2118 3.17819C20.5951 3.17819 20.9421 3.17819 22.2846 3.25455C23.0765 3.26408 23.8608 3.41013 24.603 3.6863C25.1429 3.89492 25.6333 4.21413 26.0426 4.62343C26.4519 5.03273 26.7711 5.52309 26.9797 6.06302C27.2526 6.80568 27.3985 7.58896 27.4115 8.38005C27.4712 9.7003 27.4864 10.071 27.4864 13.4542C27.4864 16.836 27.4864 17.1997 27.4267 18.5269H27.4115V18.5255Z" fill="white"/>
</g>
<defs>
<filter id="filter0_d_2_26" x="0.764587" y="0.98056" width="33" height="33.0389" filterUnits="userSpaceOnUse" color-interpolation-filters="sRGB">
<feFlood flood-opacity="0" result="BackgroundImageFix"/>
<feColorMatrix in="SourceAlpha" type="matrix" values="0 0 0 0 0 0 0 0 0 0 0 0 0 0 0 0 0 0 127 0" result="hardAlpha"/>
<feOffset dy="4"/>
<feGaussianBlur stdDeviation="2"/>
<feComposite in2="hardAlpha" operator="out"/>
<feColorMatrix type="matrix" values="0 0 0 0 0 0 0 0 0 0 0 0 0 0 0 0 0 0 0.25 0"/>
<feBlend mode="normal" in2="BackgroundImageFix" result="effect1_dropShadow_2_26"/>
<feBlend mode="normal" in="SourceGraphic" in2="effect1_dropShadow_2_26" result="shape"/>
</filter>
</defs>
</svg>
