<svg width="22" height="17" viewBox="0 0 22 17" fill="none" xmlns="http://www.w3.org/2000/svg">
<path d="M19.1323 4.33021C19.1458 4.5125 19.1458 4.69375 19.1458 4.875C19.1458 10.4219 14.924 16.8135 7.20834 16.8135C4.83125 16.8135 2.62292 16.125 0.764587 14.9292C1.10209 14.9677 1.42709 14.9813 1.77813 14.9813C3.66666 14.9858 5.50172 14.3543 6.9875 13.1885C6.1119 13.1727 5.2631 12.8838 4.55963 12.3622C3.85615 11.8406 3.33311 11.1124 3.06355 10.2792C3.32292 10.3177 3.58334 10.3438 3.85625 10.3438C4.2323 10.3438 4.61042 10.2917 4.96146 10.201C4.01121 10.0092 3.15675 9.49412 2.54336 8.74343C1.92997 7.99273 1.59552 7.05276 1.59688 6.08334V6.03125C2.15625 6.34271 2.80521 6.5375 3.49271 6.56355C2.91676 6.18082 2.4445 5.66149 2.11807 5.05187C1.79163 4.44225 1.62116 3.76131 1.62188 3.0698C1.62188 2.29063 1.82917 1.57605 2.19271 0.95313C3.24702 2.25003 4.56199 3.31101 6.05244 4.06736C7.54289 4.82371 9.17559 5.25856 10.8448 5.34375C10.7802 5.03125 10.7406 4.7073 10.7406 4.3823C10.7404 3.83121 10.8487 3.28548 11.0595 2.7763C11.2702 2.26711 11.5793 1.80446 11.9689 1.41478C12.3586 1.02511 12.8213 0.716057 13.3305 0.505294C13.8396 0.294531 14.3854 0.186189 14.9365 0.186463C16.1448 0.186463 17.2354 0.692713 18.0021 1.51146C18.9414 1.32981 19.8422 0.986902 20.6646 0.497921C20.3515 1.46752 19.6956 2.2897 18.8198 2.81042C19.6529 2.7154 20.4671 2.49631 21.2354 2.16042C20.6616 2.99698 19.9505 3.73057 19.1323 4.33021Z" fill="white"/>
</svg>
